<?xml version="1.0" standalone="no"?>
<!DOCTYPE svg PUBLIC "-//W3C//DTD SVG 20010904//EN"
 "http://www.w3.org/TR/2001/REC-SVG-20010904/DTD/svg10.dtd">
<svg version="1.0" xmlns="http://www.w3.org/2000/svg"
 width="128.000000pt" height="34.200000pt" viewBox="0 0 1280.000000 342.000000"
 preserveAspectRatio="xMidYMid meet">
<metadata>
Created by potrace 1.15, written by Peter Selinger 2001-2017
</metadata>
<g transform="translate(0.000000,342.000000) scale(0.100000,-0.100000)"
fill="#000000" stroke="none">
<path d="M515 3276 c-48 -21 -89 -60 -115 -112 -23 -46 -25 -60 -28 -228 -3
-140 0 -181 10 -187 10 -7 11 -12 1 -29 -16 -25 -17 -70 -1 -70 9 0 9 -3 0
-12 -14 -14 -17 -184 -3 -192 14 -9 54 -10 74 -1 31 13 18 -13 -15 -29 -38
-20 -38 -20 -38 -1 0 8 -4 15 -9 15 -17 0 -23 -21 -10 -36 9 -11 9 -21 1 -38
-6 -15 -10 -88 -9 -187 2 -140 4 -163 17 -160 8 2 24 6 35 8 11 3 4 -4 -15
-15 l-35 -19 -3 -292 c-2 -223 1 -291 10 -291 9 0 9 -3 0 -12 -7 -7 -12 -40
-12 -80 0 -53 4 -69 17 -77 16 -9 16 -11 1 -28 -13 -15 -16 -45 -17 -180 -1
-155 -1 -163 20 -173 19 -11 46 -65 41 -84 -2 -4 3 -14 9 -22 15 -18 8 -25
-33 -33 l-33 -7 -3 -177 c-2 -162 -1 -182 19 -226 31 -72 59 -95 115 -93 25 1
55 7 66 13 11 6 22 8 26 5 3 -3 15 0 28 8 18 13 25 13 40 2 17 -13 16 -15 -11
-38 -16 -14 -25 -30 -21 -36 5 -9 190 -12 725 -12 618 0 723 2 747 15 37 19
98 19 114 0 11 -13 110 -14 769 -12 l756 2 -2 28 c-2 24 2 28 20 25 12 -2 28
-15 35 -30 l13 -28 484 0 c325 0 486 4 490 11 5 7 11 7 19 0 8 -7 333 -10 982
-8 l969 2 5 30 6 30 31 -32 31 -33 286 0 c174 0 288 4 291 10 4 7 13 7 25 0
10 -5 89 -10 174 -10 132 0 156 2 164 16 8 15 10 15 15 0 5 -13 22 -16 86 -16
95 0 108 11 60 51 -47 38 -105 46 -141 19 -23 -17 -31 -18 -53 -8 -29 13 -34
47 -7 49 48 3 82 17 82 35 0 10 12 14 39 14 30 0 40 -4 44 -20 7 -26 33 -35
63 -22 30 14 33 56 4 74 -11 7 -20 18 -20 24 0 7 -7 15 -17 18 -9 4 -291 6
-627 6 l-611 -1 -49 -24 -50 -24 -30 22 -31 22 -2374 2 c-2227 3 -2376 2
-2393 -14 -11 -10 -17 -25 -14 -36 7 -27 -3 -47 -24 -47 -11 0 -22 -5 -25 -10
-4 -6 -23 -9 -43 -8 -25 2 -36 -1 -35 -9 3 -15 -21 -28 -68 -37 -51 -9 -57 14
-13 49 19 15 34 35 34 44 0 9 5 22 11 28 7 7 9 19 6 27 -5 13 -57 15 -389 18
-435 3 -422 1 -505 91 -59 64 -73 120 -73 285 0 119 -2 137 -21 163 -11 16
-17 34 -13 41 4 7 8 29 8 49 0 21 5 37 10 36 7 -1 12 60 14 182 l2 183 -23 -6
c-17 -4 -30 0 -42 14 -19 21 -14 26 35 32 25 3 25 5 28 101 3 108 -4 118 -54
72 -15 -14 -31 -25 -36 -25 -15 0 -22 32 -10 51 7 10 12 25 12 32 0 22 46 42
63 29 8 -7 17 -9 20 -5 4 3 7 243 7 533 0 578 1 588 59 661 40 50 39 68 -4 59
-5 -1 -2 7 8 18 19 20 23 67 7 77 -17 10 -11 25 10 25 11 0 20 5 20 11 0 6 12
3 28 -6 36 -22 82 -6 82 27 0 13 4 30 9 37 12 19 -4 51 -25 51 -8 0 -13 4 -10
9 7 10 48 2 57 -11 6 -9 69 12 69 24 0 4 -4 9 -9 12 -5 3 -7 15 -4 26 5 19 0
20 -183 20 -133 -1 -198 -5 -219 -14z m185 -46 c0 -23 6 -33 25 -42 29 -13 28
-32 -2 -34 -40 -2 -56 -13 -50 -35 5 -19 3 -20 -43 -14 -43 6 -49 5 -55 -15
-7 -24 7 -46 36 -55 32 -11 21 -25 -18 -23 -21 1 -51 -3 -68 -9 l-30 -10 1 51
c0 28 2 56 4 61 2 6 4 15 5 20 14 54 28 65 88 65 17 0 30 7 34 18 10 28 35 52
55 52 13 0 18 -8 18 -30z m11 -103 c-6 -8 -9 -17 -6 -21 3 -3 0 -2 -6 3 -12
10 -4 31 13 31 7 0 7 -4 -1 -13z m-114 -59 c-3 -8 -6 -5 -6 6 -1 11 2 17 5 13
3 -3 4 -12 1 -19z m-85 -851 c28 -21 41 -43 33 -57 -8 -13 -55 2 -66 21 -5 11
-14 19 -19 19 -10 0 -50 36 -50 44 0 12 78 -9 102 -27z m-2 -227 c0 -9 -31
-30 -44 -30 -3 0 -6 7 -6 16 0 8 4 13 9 9 5 -3 12 -1 16 5 8 13 25 13 25 0z
m20 -200 c0 -5 -5 -10 -11 -10 -5 0 -7 5 -4 10 3 6 8 10 11 10 2 0 4 -4 4 -10z
m-54 -65 c5 -19 0 -30 -17 -45 -13 -10 -27 -19 -30 -20 -11 0 -3 59 11 75 18
22 29 19 36 -10z m79 -225 c3 -5 1 -10 -6 -10 -6 0 -18 -8 -25 -17 -11 -15
-13 -16 -14 -2 0 28 32 49 45 29z m-95 -34 c0 -2 -9 -6 -20 -9 -11 -3 -20 -1
-20 4 0 5 9 9 20 9 11 0 20 -2 20 -4z m-56 -41 c3 -8 1 -15 -4 -15 -6 0 -10 7
-10 15 0 8 2 15 4 15 2 0 6 -7 10 -15z m41 -155 c-3 -5 -10 -10 -16 -10 -5 0
-9 5 -9 10 0 6 7 10 16 10 8 0 12 -4 9 -10z m19 -178 c3 -5 -1 -9 -9 -9 -8 0
-12 4 -9 9 3 4 7 8 9 8 2 0 6 -4 9 -8z m93 -30 c15 -9 -19 -52 -41 -52 -22 0
-20 36 2 49 21 13 24 13 39 3z m-119 -97 c-3 -3 -9 2 -12 12 -6 14 -5 15 5 6
7 -7 10 -15 7 -18z m2059 -601 c-3 -3 -12 -4 -19 -1 -8 3 -5 6 6 6 11 1 17 -2
13 -5z m2370 0 c-3 -3 -12 -4 -19 -1 -8 3 -5 6 6 6 11 1 17 -2 13 -5z m620 0
c-3 -3 -12 -4 -19 -1 -8 3 -5 6 6 6 11 1 17 -2 13 -5z m1250 -16 c4 -7 6 -21
5 -30 -2 -10 3 -18 10 -18 9 0 14 -11 13 -27 0 -24 -5 -27 -36 -31 -33 -3 -38
0 -47 28 -19 54 28 121 55 78z m-4287 -38 c0 -5 -2 -10 -4 -10 -3 0 -8 5 -11
10 -3 6 -1 10 4 10 6 0 11 -4 11 -10z m-15 -30 c6 -19 -13 -60 -27 -60 -5 0
-8 12 -8 26 0 23 -3 25 -32 22 -23 -2 -36 -10 -43 -25 -5 -13 -16 -23 -24 -23
-9 0 -10 4 -4 13 5 6 17 24 26 39 14 22 23 26 61 26 35 0 46 -4 51 -18z m3515
-10 c0 -5 -5 -10 -11 -10 -5 0 -7 5 -4 10 3 6 8 10 11 10 2 0 4 -4 4 -10z
m-1419 -33 c-10 -9 -11 -8 -5 6 3 10 9 15 12 12 3 -3 0 -11 -7 -18z m2659 -2
c0 -28 -15 -49 -29 -41 -6 4 -11 19 -11 34 0 21 5 28 20 28 14 0 20 -7 20 -21z
m-2980 -13 c0 -15 -2 -15 -10 -2 -13 20 -13 33 0 25 6 -3 10 -14 10 -23z
m-490 4 c0 -3 -4 -8 -10 -11 -5 -3 -10 -1 -10 4 0 6 5 11 10 11 6 0 10 -2 10
-4z m-1860 -15 c0 -5 10 -12 23 -14 15 -4 13 -5 -7 -4 -27 2 -52 27 -27 27 6
0 11 -4 11 -9z m2170 -1 c0 -5 -2 -10 -4 -10 -3 0 -8 5 -11 10 -3 6 -1 10 4
10 6 0 11 -4 11 -10z m-490 -25 c0 -8 -8 -15 -17 -14 -11 0 -13 3 -5 6 6 2 10
9 6 14 -3 5 0 9 5 9 6 0 11 -7 11 -15z m-75 -5 c3 -5 -1 -10 -10 -10 -9 0 -13
5 -10 10 3 6 8 10 10 10 2 0 7 -4 10 -10z m548 -7 c-7 -2 -21 -2 -30 0 -10 3
-4 5 12 5 17 0 24 -2 18 -5z"/>
<path d="M590 3168 c0 -7 7 -21 14 -30 25 -34 56 -14 34 22 -14 22 -48 28 -48
8z"/>
<path d="M1044 3275 c-3 -8 -3 -18 0 -23 3 -6 -3 -12 -14 -15 -17 -4 -19 -9
-11 -30 13 -32 6 -38 -30 -25 -38 13 -75 -9 -84 -50 -8 -38 -88 -84 -122 -72
-28 11 -55 -17 -46 -48 6 -26 23 -27 78 -7 33 12 161 14 777 15 l736 0 21 34
c16 26 27 33 47 30 35 -3 54 -22 35 -33 -44 -27 10 -31 453 -31 493 0 486 -1
472 54 -3 14 -2 28 4 31 5 3 10 21 10 40 0 43 6 46 59 34 37 -8 50 -6 84 11
35 19 42 20 55 6 8 -8 16 -29 17 -47 2 -26 1 -29 -7 -15 -8 14 -18 16 -56 10
-73 -10 -84 -19 -76 -60 5 -28 3 -34 -11 -34 -9 0 -15 -6 -12 -12 3 -10 167
-13 778 -13 l774 0 3 28 c3 25 6 28 32 22 18 -4 40 0 62 11 37 20 74 19 95 -2
11 -10 20 -11 33 -4 25 14 37 13 22 -2 -20 -20 -14 -47 11 -52 12 -3 85 -4
162 -2 77 2 149 3 160 3 11 0 137 0 280 1 143 1 279 2 303 1 193 -3 2708 -1
2745 2 57 6 76 26 48 50 -11 9 -21 27 -23 40 -2 17 -16 30 -45 44 -61 29 -55
65 10 65 14 0 28 -11 39 -31 13 -22 23 -29 37 -24 52 16 59 -19 20 -98 -11
-21 -17 -42 -14 -47 3 -5 220 -8 483 -7 381 2 476 5 474 15 -1 9 4 8 21 -3 20
-13 57 -15 223 -13 180 3 199 5 199 20 0 10 6 23 12 29 10 10 18 8 35 -8 13
-11 34 -26 47 -33 21 -11 26 -10 41 10 l17 23 6 -22 c5 -21 6 -21 389 -21 212
0 387 2 390 5 11 12 -6 57 -32 83 -31 31 -29 52 6 52 14 0 27 7 30 15 12 29
34 -5 34 -52 0 -29 7 -53 22 -73 l22 -30 295 0 296 0 60 -29 c68 -32 104 -66
137 -130 27 -50 37 -57 91 -66 40 -6 46 -25 11 -35 -11 -3 -32 -14 -47 -26
l-26 -21 -1 -411 c0 -407 0 -411 21 -422 11 -6 27 -9 36 -6 15 6 79 -19 89
-35 7 -12 -25 -71 -36 -64 -5 3 -17 -2 -27 -12 -16 -16 -22 -16 -43 -6 -31 16
-40 9 -40 -32 0 -22 7 -39 18 -47 11 -7 22 -31 26 -52 7 -35 6 -38 -8 -27 -31
26 -36 2 -36 -188 0 -188 4 -211 37 -211 19 0 93 -34 93 -42 0 -8 -14 -10 -85
-12 l-40 -1 -3 -90 c-2 -49 0 -100 3 -112 6 -26 33 -31 41 -8 8 19 24 19 24 0
0 -8 9 -19 20 -25 11 -6 20 -17 20 -25 0 -8 5 -15 12 -15 6 0 1 -12 -13 -26
-23 -25 -28 -26 -90 -12 -11 2 -15 -20 -19 -122 -4 -92 -11 -134 -24 -158 -26
-50 -85 -111 -130 -135 -41 -22 -47 -22 -701 -27 -363 -3 -668 -9 -678 -14
-10 -5 -22 -4 -30 3 -10 7 -159 11 -485 10 -449 0 -474 -1 -518 -20 l-47 -20
-22 21 c-21 20 -30 21 -296 16 -151 -2 -283 -5 -294 -6 -11 0 -68 2 -126 6
-115 7 -136 0 -103 -37 24 -26 5 -69 -30 -69 -14 0 -32 -7 -40 -16 -15 -14
-14 -19 10 -50 15 -19 32 -34 39 -34 7 0 16 -7 19 -16 5 -13 32 -15 198 -12
187 3 193 4 190 23 -3 20 -3 20 11 1 10 -14 16 -16 21 -7 6 9 12 8 26 -4 14
-12 35 -15 96 -13 72 3 79 5 82 25 4 25 68 78 77 63 3 -5 3 -21 -1 -35 -6 -23
-3 -25 24 -25 40 0 55 20 42 54 -14 37 -14 37 16 21 14 -7 36 -33 48 -57 l21
-43 270 -2 c172 -1 275 3 283 9 19 16 15 48 -7 48 -25 0 -31 44 -13 83 11 22
18 26 40 20 14 -3 36 -11 48 -18 20 -10 21 -14 9 -47 -12 -37 -5 -58 20 -58 7
0 20 -9 30 -20 14 -15 29 -19 71 -18 38 1 54 6 54 15 0 8 -7 16 -15 19 -17 7
-20 30 -6 38 5 3 18 -11 28 -32 l20 -37 143 -3 144 -3 22 28 23 28 16 -23 c11
-15 23 -21 35 -17 10 3 21 1 25 -5 8 -14 82 -13 91 1 4 7 -4 20 -17 30 -24 19
-24 19 46 18 65 0 72 -2 95 -29 23 -29 28 -30 102 -30 74 0 79 1 88 24 15 41
70 56 70 20 0 -9 -4 -13 -9 -9 -15 9 -25 -15 -11 -28 9 -9 14 -8 24 5 7 10 16
15 19 12 3 -3 16 1 29 10 31 22 46 20 50 -6 l3 -23 389 -3 c374 -2 391 -1 445
19 57 21 112 57 143 94 47 55 48 71 48 717 0 562 -1 609 -17 615 -9 4 -19 1
-21 -5 -10 -32 -63 15 -55 48 6 21 37 27 48 10 3 -6 15 -10 26 -10 18 0 19 8
19 144 0 138 -1 144 -22 159 l-23 16 25 20 c20 16 23 22 12 33 -10 10 -17 10
-31 1 -20 -13 -31 -8 -31 13 0 7 15 14 33 16 26 2 33 8 35 30 2 17 -4 34 -17
47 -26 26 -27 47 -2 54 17 4 19 14 19 96 0 93 -4 106 -32 95 -11 -4 -14 -14
-9 -36 5 -28 5 -29 -14 -18 -32 20 -40 42 -31 77 7 25 15 33 46 40 l37 9 0
334 0 335 -27 46 c-31 52 -108 108 -174 127 -60 17 -198 16 -214 -3 -6 -8 -9
-19 -6 -24 7 -10 -22 -51 -36 -51 -4 0 -2 14 4 30 20 59 16 60 -171 60 -93 0
-172 -4 -175 -9 -10 -16 25 -71 44 -71 10 0 22 -5 26 -11 8 -13 -13 -29 -38
-29 -9 0 -40 -14 -68 -30 -56 -33 -80 -39 -61 -16 9 11 9 20 2 35 -6 11 -11
39 -11 62 0 61 -15 68 -137 69 -57 0 -105 -4 -108 -10 -3 -5 -17 -10 -30 -10
-13 0 -37 -11 -53 -25 l-30 -25 2 32 1 33 -235 3 c-129 1 -245 0 -257 -3 -13
-3 -38 -19 -56 -35 -43 -37 -88 -37 -97 0 -3 14 -12 25 -20 26 -8 0 -23 4 -32
8 -28 12 -63 3 -62 -17 2 -18 -21 -24 -31 -7 -3 6 -36 10 -73 9 -37 -1 -81 2
-98 6 -29 6 -32 4 -37 -21 -3 -15 -1 -39 4 -52 6 -16 6 -29 -2 -38 -15 -19
-71 -14 -99 8 -19 16 -22 24 -17 62 5 34 3 45 -9 50 -9 3 -319 6 -690 6 -610
0 -677 -2 -700 -17 -26 -17 -74 -20 -96 -7 -7 5 -22 10 -33 12 -11 3 -388 7
-837 9 -783 3 -818 3 -818 -15 0 -9 6 -26 13 -37 8 -11 15 -37 15 -59 l1 -38
-42 7 c-23 5 -53 9 -67 10 -14 1 -38 8 -53 16 -25 11 -28 17 -24 43 3 17 7 40
9 51 3 20 -3 20 -795 23 l-797 2 -11 -24 c-13 -28 -32 -35 -75 -29 -18 3 -34
13 -39 26 l-10 22 -417 2 -417 2 -15 -31 c-21 -42 -20 -71 4 -93 24 -21 26
-37 5 -29 -18 7 -47 -14 -39 -27 9 -14 -15 -10 -41 7 -14 9 -25 24 -25 33 0 9
-15 23 -33 32 -17 9 -34 24 -36 35 -2 10 -8 22 -13 25 -5 3 -11 15 -12 25 -3
17 -12 19 -86 19 -86 0 -120 -17 -61 -30 34 -7 35 -9 21 -35 -8 -15 -16 -17
-46 -10 -19 5 -36 10 -37 12 -1 1 -9 17 -17 33 l-16 30 -194 0 c-185 0 -195
-1 -192 -19 3 -17 2 -17 -23 2 l-27 21 -1114 1 c-966 0 -1115 -2 -1120 -15z
m9411 -45 c-5 -14 -2 -20 9 -20 18 0 21 -16 5 -26 -6 -3 -15 -1 -19 6 -4 7
-16 9 -29 5 -15 -4 -21 -2 -21 9 0 9 6 13 14 10 8 -3 19 3 26 15 14 27 23 27
15 1z m-4120 -16 c33 -22 32 -34 -4 -34 -20 0 -30 6 -34 19 -8 34 3 38 38 15z
m-3425 -13 c0 -6 -5 -13 -11 -16 -6 -4 -8 -13 -5 -20 6 -17 -52 -29 -70 -14
-14 12 -9 33 6 24 4 -3 19 4 31 15 26 21 49 26 49 11z m1277 -43 c-3 -8 -6 -5
-6 6 -1 11 2 17 5 13 3 -3 4 -12 1 -19z m5713 -37 c0 -4 -3 -11 -7 -14 -9 -9
-33 12 -33 30 0 11 4 11 20 3 11 -6 20 -14 20 -19z m-8603 -4 c12 -12 -30 -48
-46 -40 -9 3 -34 7 -56 7 -29 1 -41 6 -43 18 -2 9 5 19 15 22 24 6 121 1 130
-7z m3661 -22 c-3 -3 -9 2 -12 12 -6 14 -5 15 5 6 7 -7 10 -15 7 -18z m262 21
c0 -2 -8 -10 -17 -17 -16 -13 -17 -12 -4 4 13 16 21 21 21 13z m528 -24 c3
-16 -2 -22 -16 -22 -27 0 -33 10 -21 32 13 24 33 19 37 -10z m-2153 -12 c3 -5
16 -11 28 -11 17 -1 15 -3 -8 -8 -33 -8 -69 4 -60 20 8 12 32 12 40 -1z m8762
-426 c2 -6 -15 -18 -38 -27 -33 -13 -39 -20 -35 -35 4 -11 1 -24 -6 -29 -13
-10 -68 -15 -68 -6 0 12 65 83 77 83 7 0 13 7 13 16 0 18 51 16 57 -2z m-37
-54 c0 -5 -5 -10 -11 -10 -5 0 -7 5 -4 10 3 6 8 10 11 10 2 0 4 -4 4 -10z
m-38 -540 c4 -27 3 -29 -21 -23 -34 8 -34 8 -26 32 10 33 42 27 47 -9z m48
-54 c0 -11 -19 -15 -25 -6 -3 5 1 10 9 10 9 0 16 -2 16 -4z m-10 -680 c0 -2
-3 -11 -6 -20 -5 -12 -9 -13 -25 -3 -26 16 -24 27 6 27 14 0 25 -2 25 -4z m83
-981 c-3 -9 -8 -14 -10 -11 -3 3 -2 9 2 15 9 16 15 13 8 -4z m-2167 -22 c-10
-10 -19 5 -10 18 6 11 8 11 12 0 2 -7 1 -15 -2 -18z m-1166 -108 c-7 -9 -15
-13 -17 -11 -7 7 7 26 19 26 6 0 6 -6 -2 -15z m1030 -25 c0 -5 -5 -10 -11 -10
-5 0 -7 5 -4 10 3 6 8 10 11 10 2 0 4 -4 4 -10z"/>
<path d="M4040 3265 c0 -20 5 -25 24 -25 36 0 76 18 76 33 0 10 -14 15 -50 16
-47 1 -50 -1 -50 -24z"/>
<path d="M6747 3284 c-9 -10 2 -24 19 -24 8 0 14 7 14 15 0 15 -21 21 -33 9z"/>
<path d="M10090 3275 c-12 -14 -11 -18 1 -26 25 -16 64 -6 64 16 0 26 -46 33
-65 10z"/>
<path d="M822 2965 c-88 -38 -152 -124 -152 -202 l0 -43 45 0 c34 0 47 4 52
17 18 46 99 122 155 145 40 16 122 17 1095 17 638 1 1054 5 1058 10 3 5 1 13
-5 16 -6 4 -10 16 -8 28 l3 22 -397 3 c-324 2 -399 0 -410 -11 -11 -12 -16
-12 -26 0 -10 11 -121 13 -608 13 l-596 0 6 -27 6 -28 -23 28 c-21 25 -28 27
-92 27 -39 -1 -85 -7 -103 -15z m158 -11 l25 -15 -25 7 c-14 4 -34 7 -45 6
-16 -1 -17 1 -5 8 19 12 20 12 50 -6z m-269 -117 c-10 -9 -11 -8 -5 6 3 10 9
15 12 12 3 -3 0 -11 -7 -18z m94 -27 c-3 -5 -12 -10 -18 -10 -7 0 -6 4 3 10
19 12 23 12 15 0z"/>
<path d="M3099 2953 c-17 -45 -6 -53 70 -53 54 0 70 3 75 16 4 9 13 14 22 10
8 -3 27 2 41 11 14 10 35 17 46 18 11 0 22 5 24 11 3 8 -36 12 -132 12 l-136
1 -10 -26z m176 -11 c-3 -3 -11 0 -18 7 -9 10 -8 11 6 5 10 -3 15 -9 12 -12z"/>
<path d="M3420 2971 c0 -6 5 -13 11 -17 8 -4 8 -9 0 -17 -37 -37 -55 -37 1293
-37 l1305 0 21 30 c12 16 18 34 15 40 -4 6 -102 10 -266 10 -224 0 -259 -2
-259 -15 0 -21 -78 -20 -108 1 -18 13 -50 15 -180 13 -94 -2 -160 -7 -165 -14
-6 -7 -10 -6 -14 3 -7 17 -28 15 -43 -3 -12 -14 -15 -14 -30 0 -15 13 -112 15
-798 15 -482 0 -782 -4 -782 -9z m1695 -51 c-3 -5 -14 -10 -23 -9 -14 0 -13 2
3 9 27 11 27 11 20 0z"/>
<path d="M6250 2970 c0 -5 9 -14 20 -20 11 -6 20 -20 20 -30 0 -20 10 -20 539
-20 318 0 542 4 546 9 3 5 -12 23 -32 40 l-38 31 -527 0 c-333 0 -528 -4 -528
-10z"/>
<path d="M7397 2974 c-3 -4 -2 -15 3 -25 6 -10 9 -24 8 -31 -4 -19 44 -23 54
-4 11 20 62 21 78 1 11 -13 68 -15 414 -15 220 0 407 4 414 9 10 6 9 14 -4 39
l-15 32 -473 0 c-260 0 -476 -3 -479 -6z m50 -60 c-3 -3 -12 -4 -19 -1 -8 3
-5 6 6 6 11 1 17 -2 13 -5z"/>
<path d="M8514 2955 c-13 -53 -6 -56 138 -53 82 2 132 7 131 13 -2 6 -13 10
-25 10 -26 0 -48 23 -41 42 4 10 -17 13 -96 13 -99 0 -101 0 -107 -25z"/>
<path d="M8912 2956 c-6 -15 -18 -26 -27 -26 -8 0 -15 -7 -15 -15 0 -14 28
-15 233 -11 127 2 246 6 262 9 17 2 34 5 38 6 5 0 7 13 5 29 -3 27 -3 27 -78
25 -102 -2 -105 -2 -266 3 l-140 5 -12 -25z"/>
<path d="M9570 2966 c0 -7 7 -19 15 -26 8 -7 15 -19 15 -26 0 -12 95 -14 586
-14 464 0 585 3 582 13 -3 6 -14 13 -25 15 -11 2 -25 14 -32 28 l-11 25 -390
-1 c-330 -1 -390 -4 -390 -16 0 -19 -26 -18 -34 1 -8 21 -316 23 -316 1z"/>
<path d="M10750 2964 c0 -13 8 -15 35 -12 19 2 35 1 35 -3 0 -15 88 -49 128
-49 44 0 59 21 25 35 -16 6 -15 8 5 16 52 20 19 29 -103 29 -108 0 -125 -2
-125 -16z"/>
<path d="M11020 2965 c0 -8 5 -15 10 -15 6 0 10 -11 10 -25 0 -25 0 -25 99
-25 80 0 100 3 105 16 5 14 8 14 28 0 19 -13 58 -16 225 -16 l203 0 0 25 c0
14 5 25 10 25 6 0 8 -10 5 -23 -6 -22 -2 -23 67 -33 40 -6 96 -22 123 -34 28
-13 59 -25 70 -27 82 -12 85 -14 91 -54 8 -45 21 -49 55 -13 l24 25 -30 56
c-29 56 -87 108 -133 120 -33 8 -46 -15 -26 -45 9 -13 13 -26 10 -29 -3 -3 -8
2 -12 11 -3 9 -12 16 -20 16 -7 0 -23 14 -36 30 l-22 30 -286 0 c-193 0 -290
-4 -297 -11 -8 -8 -13 -8 -17 0 -5 7 -53 11 -132 11 -104 0 -124 -2 -124 -15z
m240 -9 c0 -2 -7 -7 -16 -10 -8 -3 -12 -2 -9 4 6 10 25 14 25 6z"/>
<path d="M12077 2714 c-4 -4 -7 -198 -7 -432 0 -392 1 -426 18 -438 13 -11 14
-15 4 -22 -7 -5 -10 -16 -7 -24 4 -9 2 -19 -4 -23 -7 -4 -11 -90 -11 -256 l0
-249 26 -10 c14 -6 30 -10 35 -10 5 0 9 212 9 539 0 536 0 540 -21 554 l-21
15 21 7 c20 6 21 13 21 181 l0 174 -28 0 c-16 0 -32 -3 -35 -6z"/>
<path d="M677 2664 c-15 -15 -8 -127 9 -146 16 -16 16 -18 0 -24 -21 -8 -23
-79 -2 -87 17 -7 56 2 74 16 14 11 17 183 3 205 -5 8 -17 11 -33 7 -19 -5 -27
-1 -34 15 -5 12 -13 18 -17 14z"/>
<path d="M9643 2623 c-27 -3 -33 -9 -33 -29 0 -13 -4 -24 -9 -24 -22 0 -41
-34 -41 -72 l0 -40 -37 7 c-34 6 -36 5 -19 -8 14 -10 16 -16 7 -22 -7 -4 -22
1 -34 12 -29 26 -55 36 -92 35 -28 -1 -29 -1 -5 6 17 5 21 10 13 15 -27 17
-90 -44 -78 -76 4 -8 1 -18 -5 -22 -6 -4 -8 -15 -5 -26 4 -11 2 -19 -5 -19 -7
0 -10 -6 -7 -14 6 -15 -29 -53 -40 -43 -33 33 -51 -173 -52 -582 0 -248 5
-271 64 -271 34 0 46 -12 25 -25 -5 -3 -10 -16 -10 -29 0 -29 -34 -61 -56 -52
-16 6 -16 -2 -11 -87 3 -52 14 -116 24 -142 16 -43 22 -48 53 -52 56 -6 65 -9
67 -16 3 -9 -6 -37 -18 -60 -8 -14 -6 -24 7 -38 23 -25 55 -21 70 9 6 12 20
29 30 36 10 8 19 25 19 38 0 16 5 22 18 20 23 -4 22 11 -2 32 -18 17 -20 17
-30 -2 -6 -11 -8 -21 -6 -24 2 -2 -4 -4 -15 -5 -10 -1 -24 5 -30 12 -10 12 -6
21 20 46 22 23 34 29 39 20 4 -6 15 -9 24 -5 13 4 17 1 17 -14 0 -28 8 -31 56
-23 41 8 89 -2 81 -17 -7 -10 21 -47 29 -39 4 4 13 2 20 -4 15 -13 7 -39 -12
-39 -8 0 -14 -6 -14 -14 0 -22 -14 -26 -48 -17 -26 8 -31 6 -35 -11 -4 -12
-11 -18 -19 -15 -8 3 -28 -1 -45 -8 -25 -11 -30 -18 -26 -38 6 -31 30 -42 134
-63 121 -24 306 -15 416 20 190 61 299 185 325 367 5 42 8 275 6 563 -3 485
-4 492 -26 549 -13 31 -31 64 -40 73 -8 9 -23 30 -33 48 -29 55 -130 120 -244
156 -56 18 -98 23 -210 25 -77 2 -155 1 -172 -2z m535 -160 l-1 -35 -18 23
c-27 35 -23 64 7 52 8 -3 13 -19 12 -40z m-478 -23 c0 -5 -4 -10 -10 -10 -5 0
-10 5 -10 10 0 6 5 10 10 10 6 0 10 -4 10 -10z m510 -35 c0 -15 -18 -30 -27
-22 -2 3 -2 15 2 26 7 23 25 19 25 -4z m-722 -10 c8 -16 42 -11 42 6 0 5 5 9
11 9 5 0 8 -4 5 -9 -4 -5 -2 -21 4 -35 12 -32 40 -35 40 -3 0 18 2 19 10 7 16
-24 12 -50 -6 -43 -10 4 -15 1 -13 -8 7 -41 -28 -89 -44 -61 -3 4 -33 6 -66 6
-34 -1 -61 2 -61 5 0 4 14 21 31 38 26 28 29 36 23 67 -7 38 7 50 24 21z m282
-37 c0 -10 5 -18 10 -18 6 0 10 7 10 15 0 24 8 19 61 -37 38 -41 49 -59 49
-85 0 -23 -5 -33 -15 -33 -17 0 -19 -9 -5 -44 6 -16 6 -27 0 -31 -6 -4 -10
-44 -10 -90 0 -76 2 -83 19 -78 34 9 90 -64 95 -122 1 -25 6 -48 9 -52 11 -11
8 -22 -12 -42 -28 -28 -66 -17 -86 25 -9 19 -18 34 -20 34 -3 0 -4 -87 -4
-192 1 -106 3 -185 6 -175 6 22 16 22 37 -2 22 -24 18 -75 -6 -79 -13 -3 -18
3 -18 22 0 14 -4 27 -9 30 -5 3 -11 -52 -13 -122 -2 -73 -9 -136 -16 -149 -25
-45 -105 -41 -129 7 -10 19 -13 151 -13 585 1 329 -3 571 -8 585 -6 14 -6 29
-2 34 5 5 6 15 3 22 -3 8 1 14 11 14 9 0 16 5 16 10 0 6 8 5 20 -2 11 -7 20
-21 20 -30z m-405 -122 c10 -7 28 -11 39 -9 19 4 19 3 5 -9 -9 -7 -14 -19 -12
-25 5 -15 -23 -17 -32 -3 -3 6 -15 10 -25 10 -23 0 -32 13 -24 34 8 20 24 20
49 2z m879 -71 c4 -12 -17 -45 -29 -45 -3 0 0 50 4 58 4 8 20 0 25 -13z m56
-25 c6 -11 8 -25 5 -30 -11 -17 -32 -11 -38 12 -11 39 14 53 33 18z m-110 -40
c0 -11 -6 -20 -14 -20 -12 0 -14 14 -7 38 1 1 6 2 11 2 6 0 10 -9 10 -20z
m-780 -14 c0 -8 5 -16 12 -18 7 -3 9 -12 5 -22 -6 -15 -9 -15 -37 5 -37 28
-39 49 -5 49 15 0 25 -6 25 -14z m784 -58 c2 -13 4 -32 4 -43 -1 -11 2 -28 6
-37 6 -12 2 -17 -16 -20 -15 -2 -24 -11 -26 -25 -2 -12 -10 -27 -18 -33 -8 -7
-14 -21 -14 -31 0 -27 -44 -25 -72 4 -13 12 -23 25 -23 29 0 3 -3 9 -7 13 -9
10 23 75 36 73 6 -1 22 3 36 9 14 6 33 14 43 17 10 3 16 10 12 16 -7 12 12 50
25 50 5 0 12 -10 14 -22z m-704 -31 c0 -5 5 -5 10 -2 6 3 10 0 10 -8 0 -8 7
-17 15 -21 9 -3 15 -18 15 -35 0 -16 6 -31 13 -34 6 -2 9 -8 5 -12 -4 -4 -14
-2 -23 5 -9 7 -15 8 -15 2 0 -6 11 -19 25 -30 14 -11 25 -23 25 -27 0 -14 -62
-65 -72 -59 -5 3 -13 15 -16 25 -7 18 -10 17 -44 -11 -31 -26 -44 -30 -88 -28
-60 3 -78 18 -62 51 7 12 16 33 21 47 7 21 22 29 81 45 67 18 71 21 67 45 -2
14 -7 32 -11 41 -6 14 -2 17 18 15 14 0 26 -5 26 -9z m160 -27 c0 -5 -5 -10
-11 -10 -5 0 -7 5 -4 10 3 6 8 10 11 10 2 0 4 -4 4 -10z m-48 -135 c0 -5 -5
-11 -11 -13 -6 -2 -11 4 -11 13 0 9 5 15 11 13 6 -2 11 -8 11 -13z m498 -85
c17 -40 5 -50 -24 -19 -18 18 -20 28 -12 41 13 21 20 16 36 -22z m50 15 c0 -8
-4 -15 -10 -15 -5 0 -10 7 -10 15 0 8 5 15 10 15 6 0 10 -7 10 -15z m-737
-184 c-5 -21 -33 -38 -33 -21 0 16 23 49 31 44 4 -2 5 -13 2 -23z m207 -93 c0
-4 -4 -8 -9 -8 -6 0 -12 4 -15 8 -3 5 1 9 9 9 8 0 15 -4 15 -9z m473 -32 c3 3
14 -1 26 -8 24 -15 28 -48 6 -48 -7 0 -18 -7 -23 -17 -12 -20 -75 -13 -102 12
-17 16 -17 18 -2 37 22 26 53 38 73 27 9 -4 19 -6 22 -3z m-528 -151 c61 -2
65 -4 65 -22 0 -22 -39 -63 -60 -63 -9 0 -25 8 -36 18 -10 10 -27 21 -36 25
-18 6 -24 37 -11 51 4 3 14 3 22 -1 9 -4 34 -7 56 -8z m568 -9 c7 -18 -7 -23
-45 -18 -23 4 -26 7 -17 18 15 18 55 18 62 0z m-172 -208 c1 -7 2 -19 3 -26 0
-7 7 -17 15 -21 11 -7 9 -11 -9 -21 -20 -10 -26 -9 -47 13 -21 21 -23 28 -14
46 13 23 50 29 52 9z m-521 -58 c0 -5 -2 -10 -4 -10 -3 0 -8 5 -11 10 -3 6 -1
10 4 10 6 0 11 -4 11 -10z m600 -10 c0 -5 -2 -10 -4 -10 -3 0 -8 5 -11 10 -3
6 -1 10 4 10 6 0 11 -4 11 -10z m10 -36 c0 -8 -5 -12 -10 -9 -6 4 -8 11 -5 16
9 14 15 11 15 -7z"/>
<path d="M9907 1916 c-6 -15 1 -26 15 -26 4 0 8 9 8 20 0 23 -15 27 -23 6z"/>
<path d="M9950 1816 c0 -9 5 -16 10 -16 6 0 10 4 10 9 0 6 -4 13 -10 16 -5 3
-10 -1 -10 -9z"/>
<path d="M1105 2590 c-9 -14 16 -33 47 -36 18 -1 40 -4 48 -5 10 -3 16 5 18
21 3 24 1 25 -54 25 -31 0 -57 -2 -59 -5z"/>
<path d="M1308 2580 c-9 -8 -24 -21 -33 -29 -9 -7 -16 -25 -15 -40 4 -51 2
-54 -31 -47 -26 5 -30 4 -20 -8 19 -23 -7 -31 -32 -10 -12 11 -32 24 -44 31
-29 17 -33 4 -33 -123 l0 -104 71 0 c38 0 68 3 66 8 -3 4 -33 6 -66 6 -34 -1
-61 1 -61 4 0 2 16 22 36 44 26 29 33 43 25 51 -12 12 -15 47 -4 47 3 0 14 -7
24 -15 15 -14 18 -14 32 0 17 16 32 21 23 6 -4 -5 -2 -21 4 -35 12 -32 40 -35
40 -3 0 18 2 19 10 7 15 -24 12 -50 -5 -44 -8 4 -15 1 -15 -5 0 -6 5 -11 11
-11 6 0 3 -7 -5 -16 -32 -31 -20 -43 47 -46 l62 -3 5 -700 5 -700 215 -2 c215
-3 215 -3 225 20 6 14 18 22 33 21 l22 -1 0 524 c0 455 -2 523 -15 523 -8 0
-17 -11 -21 -25 -3 -13 -12 -29 -20 -36 -8 -6 -14 -20 -14 -30 0 -25 -44 -26
-67 -1 -39 41 -43 57 -22 92 12 19 25 30 34 27 7 -3 19 0 25 8 6 8 21 15 33
17 12 2 22 10 22 18 0 8 6 24 12 35 11 17 14 18 22 5 7 -10 11 19 13 95 l3
110 148 3 147 3 0 169 0 169 -115 3 c-80 2 -114 0 -111 -8 8 -20 -11 -37 -42
-38 -18 -1 -28 -6 -25 -12 2 -7 0 -15 -6 -19 -7 -4 -14 6 -17 24 -4 17 -10 31
-15 31 -5 0 -9 6 -9 13 0 9 -60 12 -267 12 -224 0 -271 -2 -285 -15z m570
-116 c-1 -19 -3 -34 -4 -34 -9 0 -34 62 -29 70 13 21 34 -3 33 -36z m171 31
c11 3 29 1 40 -4 20 -11 45 -67 35 -82 -7 -12 -81 -11 -89 1 -3 6 -17 7 -31 4
-23 -6 -24 -4 -24 39 0 46 14 63 37 45 7 -5 21 -7 32 -3z m-649 -55 c0 -5 -4
-10 -10 -10 -5 0 -10 5 -10 10 0 6 5 10 10 10 6 0 10 -4 10 -10z m510 -35 c0
-15 -18 -30 -27 -22 -2 3 -2 15 2 26 7 23 25 19 25 -4z m-436 -59 c-4 -12 -11
-24 -16 -27 -5 -3 -6 -13 -2 -22 6 -18 -12 -23 -32 -9 -20 13 -35 50 -23 57 6
4 8 13 5 21 -3 8 1 14 10 14 10 0 14 6 10 15 -4 11 4 8 24 -7 23 -16 29 -27
24 -42z m48 4 c20 -18 20 -20 4 -26 -18 -7 -36 9 -36 34 0 17 7 15 32 -8z m72
-72 c18 -56 16 -68 -8 -78 -24 -9 -24 -10 -9 -40 8 -17 13 -34 10 -36 -4 -4
-30 6 -57 24 -2 2 2 7 9 11 17 11 5 32 -14 24 -26 -10 -16 23 16 51 17 16 28
34 25 42 -3 8 1 14 10 14 8 0 16 -6 18 -12z m296 -178 c0 -11 -6 -20 -14 -20
-9 0 -12 7 -9 20 3 11 9 20 14 20 5 0 9 -9 9 -20z m-276 -146 c13 -5 14 -8 1
-28 -8 -13 -12 -26 -8 -29 13 -13 23 -7 23 15 0 22 0 22 26 -4 19 -19 28 -38
29 -70 2 -23 6 -52 11 -62 5 -14 1 -24 -15 -37 -34 -28 -73 -8 -96 48 -8 18
-22 36 -31 40 -24 9 -64 48 -64 63 0 7 -7 10 -15 6 -8 -3 -15 -1 -15 4 0 6 8
10 18 10 9 1 37 12 62 25 50 27 52 27 74 19z m191 -211 c9 -36 -1 -40 -28 -11
-17 19 -21 29 -13 41 13 20 31 6 41 -30z m49 22 c3 -9 0 -15 -9 -15 -8 0 -15
7 -15 15 0 8 4 15 9 15 5 0 11 -7 15 -15z m-79 -305 c4 -6 10 -8 15 -5 14 9
50 -18 50 -37 0 -10 -7 -18 -15 -18 -7 0 -18 -7 -23 -17 -7 -12 -18 -15 -48
-10 -41 7 -94 47 -61 47 9 0 17 7 17 15 0 9 10 20 23 25 30 12 35 12 42 0z
m-215 -8 c0 -5 -9 -17 -20 -27 -16 -14 -20 -15 -20 -4 0 16 19 39 32 39 4 0 8
-4 8 -8z m54 -18 c21 -20 21 -73 1 -81 -22 -8 -24 -4 -29 50 -5 49 2 57 28 31z
m-44 -30 c0 -8 -5 -12 -10 -9 -6 4 -8 11 -5 16 9 14 15 11 15 -7z m266 -105
c10 -16 -12 -26 -46 -21 -25 3 -28 7 -19 18 14 17 55 18 65 3z m-173 -227 c-2
-13 4 -25 12 -29 12 -4 13 -9 4 -19 -17 -20 -33 -17 -57 11 -19 21 -20 28 -10
45 18 28 54 22 51 -8z m81 -59 c8 -24 7 -33 -1 -32 -5 1 -7 6 -5 11 1 6 -3 16
-9 24 -7 9 -8 14 -1 14 6 0 13 -8 16 -17z"/>
<path d="M2035 2450 c3 -5 11 -10 16 -10 6 0 7 5 4 10 -3 6 -11 10 -16 10 -6
0 -7 -4 -4 -10z"/>
<path d="M1650 1816 c0 -9 5 -16 10 -16 6 0 10 4 10 9 0 6 -4 13 -10 16 -5 3
-10 -1 -10 -9z"/>
<path d="M1880 2590 c0 -5 7 -10 16 -10 8 0 12 5 9 10 -3 6 -10 10 -16 10 -5
0 -9 -4 -9 -10z"/>
<path d="M2324 2591 c-2 -2 -4 -126 -4 -274 0 -235 2 -268 15 -263 20 7 45 -3
45 -20 0 -16 -40 -45 -52 -38 -4 3 -8 -83 -8 -190 l0 -196 34 0 c36 0 55 -23
36 -45 -6 -8 -6 -15 2 -23 9 -9 4 -12 -21 -12 -25 0 -32 4 -27 15 3 8 2 15 -3
15 -17 0 -22 -73 -20 -319 1 -258 2 -265 43 -272 16 -3 20 -13 20 -50 1 -77 1
-77 219 -77 106 0 200 4 210 9 16 9 17 37 17 369 l0 360 74 0 74 0 7 -52 c9
-68 15 -76 32 -47 10 16 12 18 7 4 -4 -11 -7 -31 -7 -44 1 -16 -2 -20 -7 -11
-12 20 -30 2 -30 -32 0 -26 2 -29 15 -18 13 10 15 9 15 -9 0 -12 -6 -21 -15
-21 -13 0 -15 -35 -15 -251 0 -222 2 -250 15 -239 12 10 15 10 15 0 0 -10 3
-10 15 0 8 7 13 16 10 20 -3 5 -1 11 3 14 5 3 19 -8 30 -24 21 -27 25 -29 85
-26 35 1 68 5 73 8 5 3 36 2 69 -3 33 -4 89 -7 125 -6 l65 2 3 156 c2 152 2
157 -19 162 -11 3 -19 10 -16 14 10 15 -9 34 -26 27 -20 -7 -23 -24 -4 -24 21
0 40 -39 26 -56 -25 -31 -79 -10 -94 36 -13 41 70 109 115 95 20 -6 20 -3 20
380 l0 387 -27 -7 c-16 -3 -35 -12 -43 -19 -30 -25 -70 4 -46 35 14 19 66 59
76 59 4 0 10 -9 13 -21 3 -12 10 -18 16 -14 14 8 14 115 1 135 -5 8 -10 11
-10 7 0 -4 -9 -3 -20 3 -15 8 -20 21 -20 50 0 22 -4 40 -10 40 -5 0 -10 9 -10
20 0 11 -4 20 -9 20 -5 0 -12 8 -15 17 -7 18 12 35 31 29 6 -3 14 2 17 9 3 9
12 12 22 8 26 -10 34 16 34 109 l0 86 -48 4 c-45 3 -48 1 -64 -29 -8 -18 -12
-33 -7 -33 5 0 9 -17 9 -37 -1 -36 -2 -37 -15 -19 -11 15 -18 17 -27 8 -13
-13 6 -42 28 -42 8 0 14 -6 14 -14 0 -47 -70 -5 -90 53 -11 35 -17 41 -34 37
-12 -3 -24 -6 -28 -6 -5 0 -8 -5 -8 -11 0 -5 -8 -20 -17 -33 -14 -19 -21 -21
-40 -12 -53 26 -48 91 8 103 30 6 37 17 19 28 -6 4 -54 7 -108 7 l-97 0 -3
-132 c-2 -82 1 -137 8 -145 6 -7 24 -15 40 -18 26 -6 29 -10 28 -41 -1 -19 -5
-33 -9 -31 -4 3 -21 2 -38 -1 -29 -6 -31 -9 -31 -50 0 -36 3 -44 19 -44 22 0
34 -35 17 -49 -9 -7 -16 -7 -24 1 -9 9 -12 -2 -12 -50 l0 -62 -75 0 -75 0 0
168 c0 150 -2 170 -20 197 -25 38 -25 52 0 60 19 6 20 14 18 101 l-3 95 -248
2 c-137 1 -251 0 -253 -2z m185 -55 c19 -3 43 -14 53 -23 22 -20 24 -81 3 -89
-8 -4 -15 -14 -15 -24 0 -10 -9 -38 -20 -63 -20 -44 -22 -46 -53 -40 -32 6
-50 24 -54 53 -1 8 -7 35 -13 59 -9 37 -8 47 4 60 14 14 17 13 29 -3 13 -18
15 -18 39 -2 31 20 47 62 20 51 -9 -4 -27 -10 -39 -12 -21 -5 -23 -2 -23 32 0
35 1 37 18 23 9 -8 32 -18 51 -22z m138 -127 c2 -16 -1 -19 -9 -11 -5 5 -7 15
-4 21 10 15 12 14 13 -10z m725 -215 c0 -8 1 -19 2 -25 1 -16 -102 -60 -110
-47 -4 6 -2 13 4 17 6 3 14 19 17 34 5 17 14 27 25 27 11 0 21 4 25 10 8 13
35 1 37 -16z m-52 -199 c-7 -8 -17 -15 -22 -15 -6 0 -5 7 2 15 7 8 17 15 22
15 6 0 5 -7 -2 -15z m-730 -276 c0 -5 -5 -9 -11 -9 -7 0 -9 -10 -7 -24 8 -39
-7 -54 -31 -32 -11 10 -25 15 -30 11 -6 -3 -11 1 -11 9 0 22 20 70 32 77 12 8
58 -18 58 -32z m670 -20 c0 -14 69 -42 87 -35 11 5 13 2 9 -10 -3 -8 -6 -22
-6 -30 0 -9 -5 -12 -11 -9 -6 4 -13 -2 -16 -14 -7 -29 -31 -26 -43 4 -5 13
-20 27 -34 31 -13 3 -33 15 -43 26 -17 19 -17 20 2 34 22 16 55 19 55 3z
m-120 -25 c0 -8 -5 -12 -10 -9 -6 4 -8 11 -5 16 9 14 15 11 15 -7z m53 -47 c8
-5 5 -7 -8 -5 -22 4 -31 30 -19 56 6 13 9 10 12 -13 2 -16 9 -34 15 -38z
m-512 -70 c-10 -9 -11 -8 -5 6 3 10 9 15 12 12 3 -3 0 -11 -7 -18z m471 -14
c31 -6 53 -27 44 -42 -4 -6 -13 -8 -21 -5 -8 4 -17 -1 -21 -9 -5 -14 -9 -14
-40 0 -19 9 -34 20 -34 25 0 4 -7 8 -17 8 -14 0 -14 2 3 21 12 14 25 18 39 14
11 -4 32 -9 47 -12z m-682 -105 c0 -5 -8 -8 -17 -7 -30 3 -33 0 -23 -26 6 -14
6 -34 1 -47 -9 -23 -9 -23 -20 5 -6 16 -15 26 -20 23 -5 -4 -7 3 -4 14 3 11
10 20 15 20 5 0 6 5 3 11 -4 5 1 19 11 30 16 18 18 18 36 3 10 -10 18 -21 18
-26z m203 -25 c9 -5 5 -42 -6 -61 -5 -7 -13 -10 -18 -7 -15 10 -10 -12 6 -25
17 -14 20 -40 5 -40 -5 0 -10 -6 -10 -14 0 -8 -6 -16 -14 -19 -15 -6 -36 11
-36 28 0 7 -9 20 -20 30 -11 10 -20 25 -20 32 0 8 9 26 20 40 11 14 20 32 20
40 0 11 8 13 33 8 17 -4 35 -9 40 -12z m754 -508 c3 -9 3 -19 -1 -22 -7 -7
-36 16 -36 28 0 15 30 10 37 -6z"/>
<path d="M4195 2590 l-360 -5 -3 -25 c-5 -34 -167 -1140 -195 -1327 l-23 -152
35 -35 c19 -20 32 -38 29 -41 -10 -10 -48 14 -48 30 0 8 -4 15 -9 15 -9 0 -29
-100 -34 -170 l-2 -35 130 2 c145 1 132 1 273 -1 57 0 106 3 109 7 4 7 32 258
33 295 0 9 26 12 94 12 l93 0 12 -147 c7 -82 14 -153 16 -158 2 -10 511 -14
509 -4 -1 2 -4 31 -9 64 -9 73 -11 78 -35 65 -15 -8 -21 -6 -29 7 -10 17 -10
17 -11 0 0 -10 -4 -15 -10 -12 -16 10 -12 -7 7 -27 9 -10 11 -18 6 -18 -15 0
-30 21 -38 53 -4 15 -12 27 -19 27 -6 0 -16 12 -23 26 -16 34 4 41 69 24 27
-6 52 -10 55 -7 10 11 -189 1187 -202 1187 -12 0 -75 90 -75 108 0 10 23 22
42 22 6 0 8 -6 5 -14 -3 -8 1 -20 9 -26 11 -10 14 -10 14 0 0 30 -42 255 -48
260 -4 3 -169 3 -367 0z m151 -67 c-3 -8 -6 -19 -6 -24 0 -11 -11 -11 -28 0
-11 7 -12 12 -1 29 14 22 43 18 35 -5z m-136 -273 c-6 -11 -16 -20 -23 -20 -7
0 -6 4 3 10 8 5 11 10 5 10 -5 0 -3 5 5 10 21 14 22 13 10 -10z m55 -440 c15
-140 29 -274 32 -297 l6 -43 -59 -2 c-33 0 -65 -1 -73 0 -8 0 -25 -4 -37 -8
-21 -8 -22 -7 -15 13 4 12 11 54 15 92 10 106 76 588 83 605 8 19 16 -40 48
-360z m267 303 c8 -10 15 -26 15 -35 0 -14 -3 -15 -16 -6 -21 16 -41 40 -41
50 0 14 27 8 42 -9z m-425 -495 c0 -7 2 -20 4 -28 2 -8 -6 -19 -18 -25 -13 -5
-23 -15 -23 -22 0 -7 -7 -13 -15 -13 -8 0 -15 5 -15 11 0 19 21 49 34 49 8 0
16 9 19 20 6 22 13 27 14 8z m233 -23 c10 -27 25 -36 65 -39 14 0 25 -4 25 -8
0 -5 1 -11 3 -15 1 -3 -11 -7 -27 -8 -15 0 -34 -8 -41 -18 -11 -15 -13 -14
-23 9 -7 14 -12 33 -12 44 0 10 -4 22 -10 25 -13 8 -13 35 0 35 6 0 15 -11 20
-25z m-544 -82 c-10 -10 -19 5 -10 18 6 11 8 11 12 0 2 -7 1 -15 -2 -18z m586
-71 c-7 -2 -12 -18 -12 -35 -1 -40 -17 -62 -53 -69 -21 -4 -31 0 -42 15 -13
19 -12 23 17 47 18 16 40 25 50 22 17 -4 26 12 11 21 -5 2 -2 2 5 1 6 -2 12 1
12 7 0 6 5 7 12 3 9 -6 9 -9 0 -12z m-147 -39 c15 -23 16 -25 1 -20 -9 4 -15
2 -13 -5 1 -7 -7 -14 -18 -16 -16 -4 -17 -2 -7 11 10 12 10 16 0 19 -10 4 -10
8 1 21 17 21 16 22 36 -10z m-70 -53 c-3 -5 -10 -10 -16 -10 -5 0 -9 5 -9 10
0 6 7 10 16 10 8 0 12 -4 9 -10z m492 -59 c3 -11 17 -21 34 -25 27 -5 28 -7
17 -26 -11 -18 -10 -23 6 -36 11 -8 16 -15 10 -15 -23 -3 -50 4 -64 16 -15 14
-77 14 -98 1 -6 -3 -13 -2 -17 4 -4 6 -10 8 -15 5 -10 -6 -22 23 -14 36 7 12
64 42 64 34 0 -4 10 1 22 9 30 21 49 20 55 -3z m95 7 c-17 -17 -15 -29 3 -22
8 4 15 1 15 -5 0 -18 -29 -25 -45 -11 -18 15 -3 50 22 50 13 0 14 -3 5 -12z
m-266 -52 c21 -16 22 -14 -31 -31 -8 -2 -15 -14 -15 -25 0 -26 -20 -26 -27 0
-3 10 -18 25 -34 32 -16 7 -29 16 -29 20 0 12 15 9 29 -4 10 -11 14 -10 22 5
12 21 58 23 85 3z m94 -101 c0 -3 -11 -5 -24 -5 -24 0 -42 32 -29 53 5 8 53
-35 53 -48z m-813 -127 c-3 -8 -6 -5 -6 6 -1 11 2 17 5 13 3 -3 4 -12 1 -19z
m18 -58 c3 -6 -1 -7 -9 -4 -18 7 -21 14 -7 14 6 0 13 -4 16 -10z m38 -50 c-3
-12 -8 -19 -11 -16 -5 6 5 36 12 36 2 0 2 -9 -1 -20z"/>
<path d="M4954 2591 c-8 -9 -4 -411 5 -411 5 0 11 -7 15 -15 3 -8 0 -14 -7
-12 -9 1 -13 -26 -15 -95 l-3 -98 35 0 c19 0 37 -4 40 -9 11 -18 58 -19 76 -1
15 15 16 20 2 46 -8 15 -24 36 -36 47 -15 13 -17 20 -8 23 6 3 9 10 6 16 -5 7
2 9 19 4 15 -3 27 -2 29 5 2 6 14 8 31 4 25 -7 35 -32 27 -70 -1 -5 -3 -21 -4
-35 -2 -14 -11 -26 -20 -28 -19 -4 -21 -16 -3 -31 11 -8 19 -5 36 13 30 32 51
23 51 -19 0 -43 -18 -54 -39 -26 -17 22 -18 22 -54 4 -31 -15 -36 -22 -32 -44
5 -20 0 -28 -20 -39 -23 -12 -28 -12 -48 8 l-22 22 33 -6 c17 -4 32 -4 32 -2
0 12 -32 68 -39 68 -12 0 -30 -22 -27 -34 2 -6 1 -8 -1 -5 -2 4 -17 2 -33 -4
l-30 -11 0 -371 c0 -203 3 -386 6 -407 5 -29 11 -37 33 -41 14 -3 34 -1 43 4
29 16 22 -26 -7 -45 -14 -9 -24 -22 -22 -28 1 -6 -9 -14 -23 -18 -32 -8 -42
-67 -14 -87 24 -17 63 -18 46 -1 -14 14 -16 38 -3 38 5 0 22 -5 38 -11 l28
-10 -25 -20 -25 -20 170 4 170 4 5 394 c6 448 -3 429 81 172 22 -68 44 -123
49 -123 16 0 33 -41 22 -52 -6 -6 9 -66 44 -171 29 -89 57 -173 62 -187 5 -18
15 -26 37 -27 78 -6 404 -7 409 -2 4 3 5 89 4 190 -3 155 -5 180 -15 157 -13
-30 -33 -38 -33 -14 0 17 -39 48 -52 40 -4 -3 -8 2 -8 10 0 19 11 21 28 4 9
-9 13 -7 18 5 4 11 17 17 35 17 l29 0 -2 666 -3 666 -205 -1 -205 -1 -2 -282
c-1 -156 -2 -330 -3 -387 0 -113 -7 -119 -35 -31 -21 67 -29 77 -49 61 -11 -9
-20 -10 -35 -2 -18 10 -22 7 -36 -19 -8 -16 -20 -30 -26 -30 -5 0 -1 12 10 28
14 19 18 37 14 64 -3 22 -9 35 -15 32 -15 -10 -25 13 -20 45 3 26 6 28 35 22
24 -5 36 -16 50 -45 39 -82 24 -22 -36 141 -59 164 -63 172 -92 178 -37 8 -60
8 -107 -1 -42 -7 -45 -2 -28 55 5 19 19 42 30 53 29 28 48 70 41 96 -5 21 -12
23 -74 26 -37 1 -67 -2 -67 -6 0 -4 5 -8 10 -8 23 0 8 -36 -21 -49 -27 -12
-33 -12 -40 0 -5 8 -7 24 -4 37 3 12 2 22 -2 22 -65 4 -206 4 -209 1z m1012
-68 c-3 -8 -6 -19 -6 -24 0 -15 -30 -10 -36 6 -4 8 -1 22 6 30 14 17 43 8 36
-12z m-875 -165 c19 -17 33 -35 32 -40 -2 -4 2 -8 8 -8 6 0 8 7 5 15 -3 8 -9
22 -12 30 -3 8 -1 15 6 15 6 0 8 5 5 10 -7 12 -3 12 19 4 9 -3 16 -11 16 -17
0 -5 15 -28 33 -51 19 -23 37 -53 41 -68 3 -16 13 -28 21 -28 11 0 15 -12 15
-45 0 -42 -2 -46 -36 -60 -46 -19 -43 -20 -55 12 -12 33 -1 115 15 106 6 -3 7
-2 3 3 -5 5 -14 9 -20 9 -7 0 -12 17 -12 42 0 23 -3 45 -7 49 -5 4 -8 2 -8 -4
0 -7 -8 -20 -17 -30 -17 -17 -19 -16 -38 4 -11 11 -32 29 -47 39 -30 18 -38
45 -14 45 8 0 29 -14 47 -32z m747 -100 c-7 -20 -52 -40 -57 -26 -4 13 26 38
47 38 7 0 12 -6 10 -12z m-730 -40 c14 -14 16 -32 3 -23 -5 3 -12 1 -16 -5
-11 -18 -25 -10 -25 15 0 27 18 33 38 13z m-88 -60 c0 -16 -3 -19 -11 -11 -6
6 -8 16 -5 22 11 17 16 13 16 -11z m740 -33 c0 -18 -14 -26 -33 -19 -14 5 -13
8 1 23 19 19 32 18 32 -4z m-460 -5 c0 -5 -5 -10 -11 -10 -5 0 -7 5 -4 10 3 6
8 10 11 10 2 0 4 -4 4 -10z m44 -25 c-15 -23 -34 -33 -34 -18 0 10 32 43 42
43 5 0 1 -11 -8 -25z m-304 -7 c0 -13 -23 -5 -28 10 -2 7 2 10 12 6 9 -3 16
-11 16 -16z m253 -198 c-3 -11 -7 -20 -9 -20 -2 0 -4 9 -4 20 0 11 4 20 9 20
5 0 7 -9 4 -20z m-16 -70 c3 -43 -5 -48 -51 -30 -18 7 -26 6 -26 -1 0 -8 -5
-7 -15 1 -8 7 -15 18 -15 25 0 20 28 26 38 8 8 -13 12 -11 27 15 23 39 39 32
42 -18z m488 22 c2 -29 -23 -52 -35 -31 -5 8 -5 18 0 23 4 4 6 15 3 23 -4 11
0 14 12 12 11 -3 19 -14 20 -27z m-399 -166 c4 -10 15 -13 40 -9 30 5 34 3 34
-17 0 -19 -4 -21 -22 -15 -13 4 -49 7 -80 7 -64 0 -73 9 -30 32 35 19 51 20
58 2z m411 -22 c3 -8 -4 -25 -17 -39 -12 -13 -19 -28 -15 -35 3 -6 3 -10 -2
-9 -19 3 -53 -14 -53 -27 0 -8 -9 -14 -20 -14 -20 0 -20 1 -5 30 9 17 22 30
30 30 8 0 15 6 15 13 0 48 52 89 67 51z m183 -59 c0 -20 26 -36 59 -37 24 -1
31 -6 31 -20 0 -15 -5 -18 -19 -13 -13 4 -27 -1 -40 -14 -12 -12 -23 -21 -25
-21 -2 0 -9 21 -16 47 -6 26 -16 53 -22 60 -15 18 0 37 18 22 8 -6 14 -17 14
-24z m-116 -173 c30 -34 61 -36 79 -5 5 8 16 11 28 8 11 -4 19 -2 19 5 0 6 -5
8 -12 4 -6 -4 -8 -3 -5 3 4 6 15 13 26 16 17 4 19 0 14 -32 -7 -57 -22 -79
-57 -84 -23 -4 -35 0 -48 14 -19 23 -28 23 -65 5 -84 -42 -79 -42 -113 -5 -34
38 -34 71 0 101 11 9 20 20 20 26 0 5 10 14 23 19 19 9 25 7 42 -15 11 -15 33
-42 49 -60z m-754 -42 c0 -5 -7 -10 -15 -10 -8 0 -15 5 -15 10 0 6 7 10 15 10
8 0 15 -4 15 -10z m55 -60 c23 -25 35 -25 35 -1 0 14 6 17 26 13 33 -6 43 -31
19 -48 -23 -17 -49 -18 -39 -3 4 8 0 9 -15 4 -13 -4 -21 -2 -21 5 0 7 -7 10
-15 6 -8 -3 -15 -1 -15 4 0 5 -10 12 -22 16 -15 4 -25 1 -35 -12 -7 -10 -13
-13 -13 -7 0 19 30 43 54 43 13 0 31 -9 41 -20z m-47 -54 c-10 -7 -18 -18 -18
-25 0 -6 -4 -11 -10 -11 -13 0 -13 6 0 31 6 10 18 19 28 19 16 -1 16 -2 0 -14z
m140 -87 c-8 -5 -4 -16 14 -34 32 -32 43 -76 21 -92 -8 -7 -12 -17 -7 -24 5
-9 2 -10 -12 -5 -10 5 -27 11 -36 13 -10 3 -18 10 -18 15 0 5 -10 6 -21 3 -13
-5 -19 -3 -15 3 3 5 -3 21 -14 33 -11 13 -19 18 -20 12 0 -21 -27 -15 -33 7
-5 21 9 38 15 18 6 -18 40 0 36 19 -3 14 6 21 37 29 24 6 39 16 37 24 -2 7 0
20 4 29 5 12 8 9 15 -14 6 -20 5 -32 -3 -36z m539 -31 c-3 -8 -6 -5 -6 6 -1
11 2 17 5 13 3 -3 4 -12 1 -19z"/>
<path d="M5766 1463 c-4 -9 -1 -20 6 -25 20 -12 32 -9 19 5 -6 8 -8 16 -5 19
3 3 1 9 -4 12 -6 3 -13 -2 -16 -11z"/>
<path d="M6294 2591 c-2 -2 -4 -300 -4 -662 0 -653 0 -657 20 -662 17 -4 19
-11 14 -31 -4 -19 -2 -28 10 -32 24 -9 10 -22 -19 -16 l-25 4 0 -170 c0 -169
0 -170 23 -174 44 -8 241 2 248 13 5 8 12 8 27 0 32 -17 40 -13 34 15 -5 25
-3 26 24 20 39 -10 40 -13 20 -35 -17 -18 -16 -19 51 -17 l68 1 3 97 c2 82 -1
104 -17 135 -11 21 -20 32 -21 26 0 -21 -28 -15 -35 8 -8 25 3 39 15 20 13
-21 43 -5 35 19 -4 14 -2 20 8 20 20 0 22 96 2 116 -8 8 -19 12 -25 9 -5 -3
-10 -2 -10 4 0 20 -43 24 -57 5 -11 -16 -13 -16 -13 -1 0 18 29 37 56 37 10 0
28 -10 41 -22 l23 -21 0 143 c0 79 3 141 6 138 3 -4 34 -110 69 -237 35 -128
69 -238 75 -246 6 -8 9 -18 6 -23 -3 -5 7 -52 21 -105 18 -67 29 -94 37 -88
15 12 51 -2 51 -20 0 -12 40 -14 224 -16 123 -1 227 0 231 2 4 3 -63 220 -150
482 l-157 478 28 78 c16 42 26 77 24 77 -3 0 -14 -9 -25 -20 -17 -17 -28 -19
-58 -14 -58 11 -62 36 -14 82 15 14 22 30 19 42 -3 10 1 27 8 37 13 17 14 17
33 -1 12 -10 25 -31 31 -46 9 -27 8 -29 -22 -32 -22 -2 -33 -9 -35 -22 -4 -17
0 -18 33 -13 21 3 39 8 41 10 2 2 19 46 38 98 18 52 45 126 60 165 14 39 26
74 26 77 0 3 -16 1 -36 -5 -20 -5 -38 -7 -41 -4 -9 8 -43 -40 -43 -61 0 -24
-10 -37 -37 -52 -37 -19 -53 -14 -53 18 0 20 8 34 26 46 25 16 25 17 7 37 -15
17 -15 22 -4 26 8 3 24 15 36 28 24 26 46 30 75 14 13 -7 21 -5 31 6 8 9 21
13 38 9 25 -5 27 -1 61 92 19 54 35 102 35 106 0 9 -314 11 -323 3 -3 -3 -5
-19 -4 -35 0 -22 -3 -28 -14 -24 -8 3 -14 18 -14 33 0 27 -3 28 -51 32 -28 1
-54 -1 -59 -7 -9 -12 -120 -345 -120 -362 0 -7 15 -15 34 -19 41 -7 50 -24 29
-53 -12 -18 -21 -21 -44 -16 -18 4 -29 3 -29 -4 0 -6 -6 -11 -13 -11 -7 0 -23
-31 -36 -71 -21 -65 -21 -72 -7 -88 19 -20 21 -67 5 -77 -7 -4 -19 3 -29 15
l-16 23 -42 -22 c-35 -18 -40 -25 -32 -40 7 -13 4 -22 -10 -35 -21 -19 -55
-13 -64 10 -4 11 1 13 24 8 35 -6 35 -6 14 35 -17 36 -21 37 -46 18 -19 -14
-25 -32 -8 -21 6 3 10 2 10 -2 0 -13 -80 -14 -102 -2 -10 5 -16 14 -13 20 4 5
1 9 -6 9 -8 0 -7 5 2 17 13 15 11 16 -14 9 -33 -8 -45 11 -27 43 13 26 40 27
40 2 0 -10 7 -25 16 -32 14 -11 18 -11 29 4 7 9 21 17 32 17 30 0 85 -25 76
-35 -8 -8 8 1 43 24 l21 14 -19 34 c-11 18 -27 37 -35 42 -10 5 -13 15 -8 30
5 18 12 21 31 17 14 -4 24 -2 24 5 0 7 11 8 30 4 l30 -7 0 121 c0 66 -4 122
-8 125 -4 2 -14 -9 -21 -25 -13 -30 -31 -39 -31 -16 -1 6 -21 27 -46 45 -42
31 -50 52 -19 52 8 0 25 -11 39 -25 27 -27 48 -33 41 -12 -3 6 -1 18 4 26 8
12 12 12 25 2 14 -12 16 -5 16 65 0 44 -4 86 -10 94 -5 9 -5 19 2 27 6 8 9 16
6 19 -6 6 -488 11 -494 5z m206 -30 c0 -10 7 -24 15 -31 23 -19 18 -27 -25
-38 -40 -10 -40 -10 -40 20 0 16 4 27 9 24 5 -3 12 5 15 19 7 29 26 34 26 6z
m-70 -73 c0 -8 -24 -7 -80 2 -3 1 9 7 25 14 30 13 55 6 55 -16z m97 -260 c27
-25 29 -38 8 -38 -9 0 -18 -7 -21 -15 -8 -19 -28 -19 -43 -1 -9 10 -8 16 4 26
9 7 14 19 11 26 -4 12 2 24 13 24 2 0 15 -10 28 -22z m783 -10 c0 -34 -14 -67
-22 -52 -3 7 -2 69 1 82 1 1 6 2 11 2 6 0 10 -15 10 -32z m-580 -8 c9 -16 8
-18 -5 -14 -8 4 -15 1 -15 -5 0 -6 -4 -11 -10 -11 -5 0 -10 11 -10 25 0 30 25
34 40 5z m-137 -44 c4 -9 0 -13 -11 -12 -9 2 -18 8 -20 14 -5 17 25 15 31 -2z
m47 -6 c0 -11 -4 -20 -10 -20 -5 0 -10 9 -10 20 0 11 5 20 10 20 6 0 10 -9 10
-20z m14 -71 c-8 -14 -24 -10 -24 6 0 9 6 12 15 9 8 -4 12 -10 9 -15z m375
-58 c30 -23 23 -56 -10 -46 -12 4 -32 1 -45 -6 -28 -14 -46 -4 -51 31 -2 14 3
20 17 20 11 0 20 5 20 10 0 16 43 11 69 -9z m26 -101 c4 -6 -5 -9 -19 -8 -15
1 -26 6 -26 10 0 12 38 10 45 -2z m-124 -60 c28 -15 24 -56 -7 -77 -21 -14
-33 -15 -65 -6 -21 6 -39 6 -39 2 0 -18 -19 -8 -25 12 -9 28 14 44 31 21 10
-14 14 -12 29 18 15 29 19 31 27 17 5 -10 6 -22 2 -29 -4 -7 -3 -8 5 -4 6 4
11 13 10 19 -5 38 2 43 32 27z m192 -115 c9 -4 17 -18 17 -30 0 -26 -15 -41
-25 -25 -10 16 -25 11 -25 -9 0 -10 -7 -24 -15 -31 -12 -10 -20 -6 -45 19 -18
17 -30 39 -28 48 6 34 71 49 121 28z m69 -180 c18 -46 8 -70 -17 -44 -16 18
-35 75 -28 83 15 15 30 2 45 -39z m-134 13 c0 -13 2 -32 4 -43 2 -16 -2 -19
-20 -17 -20 3 -23 0 -18 -16 4 -11 2 -23 -4 -27 -5 -3 -10 -1 -10 5 0 6 -7 18
-15 26 -21 21 -19 28 16 63 36 37 47 39 47 9z m75 -112 c-3 -4 -18 -5 -34 -2
-30 6 -40 -7 -14 -18 21 -8 19 -36 -3 -36 -10 0 -22 -4 -28 -10 -11 -11 -54
-2 -54 11 0 5 14 15 30 24 31 16 37 29 20 40 -18 11 -10 24 18 27 29 3 74 -21
65 -36z m-641 2 c-9 -18 -18 -35 -19 -36 -4 -9 -43 11 -43 21 0 15 38 40 50
32 5 -3 11 -1 15 5 15 24 13 7 -3 -22z m-58 -57 c10 -11 24 -17 31 -15 7 3 16
1 20 -5 3 -7 -2 -11 -14 -11 -27 0 -27 -16 -1 -23 21 -5 26 -32 11 -55 -6 -9
-19 -11 -45 -7 l-36 7 0 64 c0 68 6 76 34 45z m276 -41 c0 -5 -7 -10 -15 -10
-8 0 -15 5 -15 10 0 6 7 10 15 10 8 0 15 -4 15 -10z m-338 -82 c-15 -15 -16
-32 -2 -23 6 3 10 2 10 -4 0 -17 -20 -23 -34 -11 -20 16 -8 50 17 50 16 0 18
-3 9 -12z m348 -28 c0 -5 -4 -10 -10 -10 -5 0 -10 -7 -10 -15 0 -8 -4 -15 -10
-15 -14 0 -13 23 2 38 15 15 28 16 28 2z m570 -140 c0 -13 -10 -24 -27 -31
-16 -6 -40 -23 -55 -40 -32 -35 -44 -36 -52 -6 -6 22 24 56 51 57 7 0 16 6 20
14 4 8 19 16 33 19 14 2 26 5 28 6 1 0 2 -8 2 -19z m-771 -23 c34 -9 47 -17
55 -38 11 -30 52 -45 73 -27 9 7 15 6 19 -6 4 -11 -3 -24 -20 -37 -14 -11 -26
-26 -26 -34 0 -7 -16 -16 -36 -19 -29 -6 -34 -10 -29 -27 5 -14 2 -19 -12 -19
-18 0 -53 57 -53 85 0 20 -30 19 -58 -1 -20 -14 -23 -14 -28 0 -3 9 -10 16
-15 16 -4 0 -5 -8 -2 -17 5 -12 2 -15 -10 -10 -9 3 -17 2 -17 -2 0 -5 7 -11
15 -15 16 -6 21 -26 6 -26 -11 0 -41 62 -35 72 3 4 -5 8 -16 8 -15 0 -20 5
-17 14 3 8 1 17 -6 19 -9 3 -9 8 0 18 10 10 23 10 64 1 39 -9 55 -9 65 -1 8 6
14 8 14 5 0 -4 6 -1 14 6 12 11 11 17 -7 37 -21 23 -21 24 -2 16 11 -4 40 -12
64 -18z"/>
<path d="M7956 2592 c-11 -3 -16 -10 -13 -20 2 -10 24 -79 48 -154 39 -125 45
-138 66 -138 16 0 23 -6 23 -20 0 -11 -6 -20 -14 -20 -19 0 -19 1 112 -405
l107 -330 5 -330 5 -330 62 -3 c54 -3 63 0 73 18 6 12 27 28 45 36 43 18 45
18 45 -3 0 -22 13 -8 17 19 5 30 11 34 33 20 17 -11 20 -10 20 8 0 11 4 20 10
20 5 0 7 -6 4 -13 -3 -8 0 -26 6 -42 13 -35 -5 -52 -31 -29 -22 20 -29 18 -29
-10 0 -24 0 -24 103 -23 l102 2 3 113 c1 61 -1 112 -6 112 -5 0 -17 -10 -28
-23 -11 -12 -39 -29 -63 -37 -42 -14 -44 -13 -63 10 -10 13 -23 30 -27 38 -14
24 -39 6 -47 -32 -5 -30 -10 -36 -32 -36 -13 0 -31 8 -38 18 -12 16 -14 16
-42 -1 -40 -23 -42 -22 -42 13 0 17 4 30 10 30 5 0 7 6 4 14 -3 8 -11 13 -17
10 -19 -6 -33 9 -40 44 -5 24 -3 32 8 32 7 0 17 -4 20 -10 10 -15 35 -12 35 5
0 8 -4 15 -10 15 -5 0 -10 6 -10 14 0 17 31 30 40 16 8 -13 67 -7 82 8 29 29
103 -6 82 -39 -3 -6 4 -17 16 -26 16 -12 20 -22 15 -42 -4 -19 -3 -22 4 -11 9
12 11 12 17 -3 7 -19 39 -23 50 -6 3 6 1 16 -5 22 -6 6 -11 16 -11 21 0 6 4 6
11 -1 18 -18 49 -3 49 23 0 13 4 32 9 42 19 35 31 114 31 208 0 86 5 111 40
220 22 68 40 134 40 148 0 13 4 26 8 28 14 5 161 457 152 463 -5 3 -10 -5 -12
-17 -2 -16 -9 -22 -22 -21 -11 1 -26 -6 -33 -15 -11 -15 -12 -15 -13 5 0 16
-4 21 -15 17 -23 -9 -18 21 8 50 25 29 71 40 72 16 0 -8 7 -16 15 -18 12 -2
26 28 55 115 21 65 38 130 38 145 -1 15 4 29 12 32 8 3 15 12 15 21 0 11 -11
15 -40 15 -409 3 -414 2 -421 -22 -13 -46 -49 -207 -79 -352 -27 -132 -29
-151 -15 -158 16 -10 21 -48 6 -48 -18 0 -41 -32 -41 -56 0 -14 -4 -22 -10
-19 -5 3 -10 22 -10 41 0 24 -5 34 -15 34 -8 0 -15 -7 -15 -15 0 -8 -10 -23
-21 -34 l-22 -20 -29 20 -29 21 32 29 c18 16 36 29 41 29 4 0 8 5 8 11 0 6 7
17 15 25 22 22 18 59 -7 76 -20 13 -21 18 -9 45 10 24 9 43 -4 104 -9 41 -21
103 -26 139 -10 61 -29 105 -29 67 0 -9 -9 -21 -20 -27 -16 -9 -20 -8 -20 6 0
10 7 25 15 34 12 14 13 21 2 43 -11 26 -16 27 -87 27 -41 0 -129 2 -196 3 -66
1 -128 0 -138 -1z m225 -33 c16 -8 18 -13 8 -25 -15 -19 -35 -18 -43 2 -14 35
-2 43 35 23z m729 -89 c0 -5 11 -10 25 -10 18 0 25 -5 25 -19 0 -30 -21 -37
-40 -14 -9 12 -28 21 -43 21 -25 0 -26 -2 -10 -14 17 -12 17 -13 1 -19 -33
-13 -81 -10 -86 4 -3 10 2 13 22 9 17 -4 26 -1 26 8 0 21 30 44 56 44 13 0 24
-4 24 -10z m-684 -54 c-8 -31 11 -44 32 -22 15 15 15 18 2 26 -8 5 -12 11 -9
14 14 14 41 -23 42 -57 1 -50 -24 -69 -80 -62 -80 11 -123 48 -106 91 4 12 8
11 20 -6 8 -11 19 -20 26 -20 8 0 8 3 -1 12 -7 7 -12 16 -12 20 0 11 39 27 69
27 20 1 22 -3 17 -23z m728 -41 c3 -8 1 -15 -4 -15 -6 0 -10 7 -10 15 0 8 2
15 4 15 2 0 6 -7 10 -15z m46 -29 c0 -9 -9 -14 -20 -13 -20 1 -25 9 -13 20 12
12 33 7 33 -7z m-230 -41 c6 -8 10 -21 8 -30 -3 -15 -6 -14 -30 5 -16 12 -28
26 -28 31 0 14 36 11 50 -6z m-507 -72 c-3 -6 4 -17 15 -24 22 -14 19 -39 -10
-81 -16 -23 -21 -25 -43 -15 -13 7 -27 23 -30 37 -3 14 -8 32 -11 41 -3 10 10
31 33 53 33 31 39 34 44 19 3 -10 4 -23 2 -30z m647 -67 c0 -3 -4 -8 -10 -11
-5 -3 -10 -1 -10 4 0 6 5 11 10 11 6 0 10 -2 10 -4z m-226 -285 c-6 -31 10
-51 20 -25 3 9 11 12 18 8 8 -5 9 -2 5 9 -5 13 -1 17 16 17 26 0 70 -36 62
-51 -4 -5 -2 -9 4 -9 5 0 12 6 15 13 3 6 5 3 3 -8 -1 -11 2 -25 6 -31 4 -7 1
-14 -7 -17 -8 -3 -16 2 -19 15 -3 11 -10 17 -16 14 -6 -4 -8 -13 -5 -20 7 -18
-20 -37 -58 -41 -49 -5 -65 3 -82 36 -13 25 -13 33 -1 57 8 15 16 35 19 45 9
29 26 19 20 -12z m39 -285 c7 -18 -1 -26 -25 -26 -18 0 -25 20 -11 33 11 12
31 8 36 -7z m-268 -55 c18 -13 21 -21 12 -30 -16 -16 -31 -14 -50 7 -13 14
-14 21 -5 30 15 15 16 15 43 -7z m-65 -5 c0 -3 -4 -8 -10 -11 -5 -3 -10 -1
-10 4 0 6 5 11 10 11 6 0 10 -2 10 -4z m-46 -541 c3 -8 3 -22 0 -30 -4 -8 -1
-15 5 -15 6 0 11 5 11 10 0 11 33 14 43 3 10 -9 -13 -33 -32 -33 -24 0 -65 46
-58 64 8 20 23 20 31 1z"/>
<path d="M8247 2376 c-18 -14 -23 -36 -7 -36 10 0 34 39 28 45 -2 2 -11 -2
-21 -9z"/>
<path d="M8714 1810 c0 -12 7 -20 18 -20 26 0 31 18 9 29 -26 14 -27 14 -27
-9z"/>
<path d="M10564 2591 c-2 -2 -4 -125 -4 -273 0 -265 0 -269 20 -263 14 5 20 2
20 -10 0 -10 -7 -15 -17 -13 -17 3 -18 -15 -21 -244 -2 -220 -1 -248 13 -248
9 0 23 16 31 35 12 30 19 35 48 35 35 0 56 -24 37 -43 -5 -5 -7 -16 -4 -23 4
-10 -3 -14 -22 -14 -20 0 -26 4 -21 15 3 9 0 15 -9 15 -9 0 -14 -8 -12 -22 1
-14 -6 -26 -22 -34 -37 -19 -48 -44 -22 -51 22 -6 25 -12 15 -37 -3 -8 -12
-12 -20 -9 -17 6 -18 -32 -4 -181 11 -124 46 -203 121 -270 102 -92 237 -137
427 -142 l123 -4 32 31 c17 18 33 27 35 20 6 -17 22 -3 22 20 0 27 12 24 35
-11 23 -35 37 -34 123 8 63 30 141 104 178 168 l27 46 -22 38 c-28 50 -27 56
14 96 l35 34 0 365 c0 202 -3 364 -7 362 -11 -7 -53 11 -53 22 0 5 14 22 30
38 30 28 30 29 30 133 0 73 -5 113 -15 130 -27 48 -28 51 -6 66 19 14 21 24
21 115 0 59 -4 99 -10 99 -5 0 -13 0 -17 0 -4 0 -8 -7 -9 -16 -2 -9 -9 -21
-16 -25 -10 -7 -10 -11 0 -21 6 -6 12 -26 12 -42 -1 -30 -1 -30 -15 -12 -11
15 -18 17 -27 8 -13 -13 6 -42 28 -42 16 0 19 -26 4 -35 -6 -4 -17 -2 -24 4
-7 6 -15 8 -18 6 -6 -6 -48 78 -48 96 0 7 -9 9 -22 5 -13 -3 -26 -6 -30 -6 -5
0 -8 -5 -8 -11 0 -6 -8 -21 -18 -34 -16 -21 -20 -21 -44 -9 -27 14 -42 51 -32
78 3 8 21 18 40 22 19 3 34 10 34 14 0 16 -38 21 -155 21 l-120 0 -5 -210 c-3
-147 -2 -210 6 -207 5 2 19 -9 29 -25 12 -17 27 -27 40 -26 15 2 20 -4 20 -22
0 -31 -21 -39 -30 -11 -7 22 -7 22 -28 2 -12 -11 -26 -18 -32 -16 -7 3 -9 -87
-7 -261 2 -248 4 -265 21 -265 10 0 25 -8 34 -18 21 -23 22 -33 2 -26 -8 4
-15 1 -15 -6 0 -6 4 -9 9 -5 6 3 15 -5 22 -17 l12 -22 9 23 c5 13 11 21 14 18
3 -3 1 -14 -5 -25 -6 -11 -9 -27 -8 -34 2 -7 2 -10 0 -5 -8 13 -50 8 -63 -8
-6 -8 -10 -20 -7 -27 2 -7 -2 -20 -9 -29 -8 -9 -16 -55 -20 -118 -6 -78 -12
-108 -26 -127 -29 -37 -94 -29 -114 13 -5 10 -11 341 -14 736 l-5 719 -243 1
c-134 1 -246 0 -248 -2z m245 -55 c19 -3 43 -14 53 -23 22 -20 24 -81 3 -89
-8 -4 -15 -15 -15 -25 0 -11 -4 -27 -10 -37 -5 -9 -14 -29 -20 -44 -8 -25 -13
-27 -42 -21 -39 7 -51 16 -53 40 0 10 -5 25 -9 32 -14 22 -16 84 -4 99 9 10
14 10 28 -3 15 -14 22 -14 38 -4 11 7 26 24 32 37 9 22 9 24 -7 17 -10 -4 -28
-10 -40 -12 -21 -5 -23 -2 -23 32 0 35 1 37 18 23 9 -8 32 -18 51 -22z m138
-126 c1 -11 -2 -20 -8 -20 -5 0 -9 9 -9 20 0 11 4 20 8 20 4 0 8 -9 9 -20z
m400 -122 c6 -5 11 -21 11 -36 -1 -25 -4 -27 -49 -30 -26 -1 -50 2 -54 8 -3 5
-1 26 7 45 11 33 15 35 43 29 16 -3 35 -11 42 -16z m-97 8 c0 -3 -4 -8 -10
-11 -5 -3 -10 -1 -10 4 0 6 5 11 10 11 6 0 10 -2 10 -4z m-3 -98 c-3 -8 -6 -5
-6 6 -1 11 2 17 5 13 3 -3 4 -12 1 -19z m433 -29 c0 -13 -102 -57 -119 -51
-11 4 -11 7 2 17 9 6 19 23 22 38 5 17 14 27 25 27 11 0 22 5 26 12 5 8 13 4
26 -11 10 -13 18 -27 18 -32z m-1016 -115 c23 -9 20 -30 -6 -48 -20 -14 -24
-14 -39 0 -17 15 -16 49 1 39 5 -3 11 -1 15 5 7 12 8 12 29 4z m966 -49 c0 -2
-10 -10 -22 -16 -21 -11 -22 -11 -9 4 13 16 31 23 31 12z m-746 -282 c3 -7 -1
-13 -9 -13 -17 0 -20 -25 -5 -35 12 -8 1 -35 -15 -35 -7 0 -16 7 -19 16 -3 9
-12 14 -20 11 -8 -3 -16 -3 -19 0 -7 6 22 76 36 85 12 7 44 -11 51 -29z m684
-33 c7 -12 28 -22 50 -26 34 -5 38 -9 34 -30 -2 -13 -9 -21 -14 -18 -5 3 -12
-3 -15 -15 -7 -28 -31 -27 -43 3 -5 15 -20 27 -37 30 -36 8 -59 42 -42 62 17
20 52 17 67 -6z m-128 -16 c0 -8 -5 -12 -10 -9 -6 4 -8 11 -5 16 9 14 15 11
15 -7z m38 -9 c-4 -17 0 -29 11 -36 14 -8 13 -9 -4 -7 -14 2 -21 12 -23 36 -2
20 1 32 9 32 7 0 9 -10 7 -25z m-488 -94 c0 -6 -4 -13 -10 -16 -5 -3 -10 1
-10 9 0 9 5 16 10 16 6 0 10 -4 10 -9z m462 -28 c15 -3 32 -11 39 -19 13 -15
3 -37 -13 -28 -6 4 -17 0 -23 -10 -13 -17 -30 -12 -85 26 -24 17 -24 18 -5 33
11 8 29 12 40 9 11 -3 32 -8 47 -11z m-682 -105 c0 -5 -8 -8 -17 -7 -30 3 -33
0 -23 -26 6 -14 6 -34 1 -47 -9 -23 -9 -23 -20 5 -6 16 -15 26 -21 22 -13 -8
10 56 28 78 14 16 16 16 34 1 10 -10 18 -21 18 -26z m203 -25 c9 -5 5 -42 -6
-61 -5 -7 -13 -10 -18 -7 -13 9 -11 -3 7 -30 14 -21 14 -25 -3 -44 -24 -29
-40 -26 -58 9 -9 17 -20 30 -25 30 -17 0 -11 41 10 67 11 14 20 32 20 40 0 11
8 13 33 8 17 -4 35 -9 40 -12z m328 -56 c-8 -8 -11 -7 -11 4 0 20 13 34 18 19
3 -7 -1 -17 -7 -23z m-101 -488 c0 -3 -8 -13 -17 -21 -20 -17 -64 -19 -63 -3
1 6 12 9 26 8 18 -1 24 2 20 12 -3 9 2 13 15 12 10 -1 19 -4 19 -8z"/>
<path d="M3286 2574 c-5 -14 9 -54 19 -54 2 0 4 16 3 35 -1 37 -12 46 -22 19z"/>
<path d="M9483 2575 c-18 -8 -33 -17 -33 -21 0 -4 3 -4 6 -1 4 3 16 2 26 -4
23 -12 42 0 36 24 -3 14 -7 14 -35 2z"/>
<path d="M11586 2575 c-6 -18 2 -45 15 -45 4 0 7 13 6 30 -2 32 -11 39 -21 15z"/>
<path d="M9398 2523 c7 -3 16 -2 19 1 4 3 -2 6 -13 5 -11 0 -14 -3 -6 -6z"/>
<path d="M1130 2506 c0 -9 5 -16 10 -16 6 0 10 4 10 9 0 6 -4 13 -10 16 -5 3
-10 -1 -10 -9z"/>
<path d="M9430 2500 c0 -5 5 -10 11 -10 5 0 7 5 4 10 -3 6 -8 10 -11 10 -2 0
-4 -4 -4 -10z"/>
<path d="M5395 2470 c-3 -5 -1 -10 4 -10 6 0 11 5 11 10 0 6 -2 10 -4 10 -3 0
-8 -4 -11 -10z"/>
<path d="M670 2292 c0 -39 4 -73 8 -76 16 -10 52 25 73 71 24 53 19 62 -40 70
l-41 6 0 -71z"/>
<path d="M1200 2329 c0 -5 5 -7 10 -4 6 3 10 8 10 11 0 2 -4 4 -10 4 -5 0 -10
-5 -10 -11z"/>
<path d="M726 2198 c-24 -34 -20 -58 9 -58 29 0 40 19 31 55 -8 31 -20 32 -40
3z"/>
<path d="M670 2111 c0 -38 4 -61 13 -64 10 -4 10 -6 0 -6 -7 -1 -13 -12 -13
-26 0 -19 5 -25 22 -25 l22 0 -21 -15 c-21 -15 -22 -22 -22 -232 -1 -185 1
-220 16 -242 9 -14 22 -30 30 -34 21 -13 15 -25 -17 -32 -27 -6 -29 -9 -28
-53 0 -26 4 -52 10 -59 6 -7 5 -14 -2 -18 -17 -10 -14 -687 4 -729 21 -49 71
-101 121 -125 44 -21 52 -21 841 -21 780 0 795 0 789 19 -4 14 0 21 15 26 13
4 20 13 18 23 -3 16 -41 17 -421 20 l-417 2 -10 -25 c-12 -31 -17 -31 -40 -3
-18 23 -21 23 -337 28 -355 6 -346 4 -416 79 -21 23 -43 41 -47 41 -5 0 -12 9
-15 21 -4 11 -16 24 -28 29 -15 6 -17 9 -6 9 31 2 39 47 39 234 -1 144 -4 186
-15 201 -19 25 -19 50 0 66 12 10 14 49 14 225 0 217 -6 259 -42 282 -7 5 -12
18 -13 31 0 18 5 22 28 22 23 0 28 4 28 26 0 18 -6 28 -20 31 -21 6 -21 6 -1
20 19 13 20 24 18 151 l-2 137 -29 3 c-18 2 -30 11 -33 23 -3 10 -12 19 -19
19 -10 0 -14 -15 -14 -59z m17 -3 c-3 -8 -6 -5 -6 6 -1 11 2 17 5 13 3 -3 4
-12 1 -19z m38 -148 c-3 -5 -11 -10 -16 -10 -6 0 -7 5 -4 10 3 6 11 10 16 10
6 0 7 -4 4 -10z m22 -182 c-3 -8 -6 -5 -6 6 -1 11 2 17 5 13 3 -3 4 -12 1 -19z
m-47 -434 c0 -8 -5 -12 -10 -9 -6 4 -8 11 -5 16 9 14 15 11 15 -7z m-13 -296
c-3 -8 -6 -5 -6 6 -1 11 2 17 5 13 3 -3 4 -12 1 -19z m60 -250 c-3 -8 -6 -5
-6 6 -1 11 2 17 5 13 3 -3 4 -12 1 -19z m-47 -108 c0 -5 -2 -10 -4 -10 -3 0
-8 5 -11 10 -3 6 -1 10 4 10 6 0 11 -4 11 -10z m1739 -200 c-6 -5 -18 -6 -26
-3 -19 8 -16 11 13 11 17 0 22 -3 13 -8z m-24 -40 c3 -5 1 -10 -4 -10 -6 0
-11 5 -11 10 0 6 2 10 4 10 3 0 8 -4 11 -10z"/>
<path d="M6775 1990 c3 -5 8 -10 11 -10 2 0 4 5 4 10 0 6 -5 10 -11 10 -5 0
-7 -4 -4 -10z"/>
<path d="M6762 1962 c-17 -11 -4 -42 14 -35 8 3 14 14 14 24 0 20 -8 23 -28
11z"/>
<path d="M9205 1430 c-3 -5 1 -10 9 -10 8 0 20 -8 25 -17 9 -15 10 -14 11 10
0 20 -5 27 -19 27 -11 0 -23 -4 -26 -10z"/>
<path d="M12070 1147 c0 -52 3 -96 6 -100 4 -3 19 0 35 9 28 14 29 17 29 89 0
63 -3 76 -19 85 -46 24 -51 16 -51 -83z"/>
<path d="M8477 1131 c-2 -11 2 -29 10 -40 11 -17 18 -19 34 -11 10 6 19 17 19
24 0 9 7 12 21 9 19 -5 20 -4 8 16 -15 24 -29 27 -47 9 -8 -8 -15 -8 -25 1
-12 9 -16 7 -20 -8z"/>
<path d="M9520 1005 c0 -8 5 -15 10 -15 6 0 10 7 10 15 0 8 -4 15 -10 15 -5 0
-10 -7 -10 -15z"/>
<path d="M12070 838 c0 -92 -3 -109 -28 -158 -47 -94 -160 -158 -288 -165 -66
-3 -64 -3 -64 -20 0 -8 -4 -15 -10 -15 -5 0 -10 6 -10 14 0 8 -7 17 -16 20
-25 10 -1987 6 -2003 -3 -27 -17 -2 -47 52 -64 49 -16 152 -17 1156 -17 l1102
0 48 25 c53 26 96 72 118 122 9 23 13 82 13 198 l0 165 -35 0 -35 0 0 -102z"/>
<path d="M2501 506 c-12 -14 -5 -26 16 -26 15 0 18 26 4 34 -5 3 -14 0 -20 -8z"/>
<path d="M2567 514 c-13 -14 -7 -51 12 -68 16 -15 44 -17 230 -15 116 0 213 5
216 9 3 5 -1 15 -9 22 -8 8 -16 23 -18 34 -3 17 -13 19 -123 19 l-120 0 0 -25
c0 -22 -4 -25 -35 -25 -30 0 -35 3 -35 25 0 23 -4 25 -55 28 -31 2 -59 0 -63
-4z"/>
<path d="M3094 506 c-3 -8 -4 -27 -2 -43 l3 -28 665 0 665 0 73 24 c54 18 72
28 70 40 -3 14 -74 16 -736 18 -619 2 -734 0 -738 -11z m796 -10 c0 -2 -9 -6
-20 -9 -11 -3 -20 -1 -20 4 0 5 9 9 20 9 11 0 20 -2 20 -4z m40 0 c0 -3 -4 -8
-10 -11 -5 -3 -10 -1 -10 4 0 6 5 11 10 11 6 0 10 -2 10 -4z m460 0 c0 -2 -7
-7 -16 -10 -8 -3 -12 -2 -9 4 6 10 25 14 25 6z m157 -2 c-3 -3 -12 -4 -19 -1
-8 3 -5 6 6 6 11 1 17 -2 13 -5z m-470 -10 c-3 -3 -12 -4 -19 -1 -8 3 -5 6 6
6 11 1 17 -2 13 -5z m-172 -23 c-3 -5 3 -12 12 -14 14 -4 13 -5 -4 -6 -23 -1
-30 9 -16 22 9 10 15 8 8 -2z m168 -6 c-3 -9 -8 -14 -10 -11 -3 3 -2 9 2 15 9
16 15 13 8 -4z m-23 -5 c0 -5 -5 -10 -11 -10 -5 0 -7 5 -4 10 3 6 8 10 11 10
2 0 4 -4 4 -10z m-43 -6 c-3 -3 -12 -4 -19 -1 -8 3 -5 6 6 6 11 1 17 -2 13 -5z"/>
<path d="M4691 511 c-8 -6 -10 -19 -6 -45 l7 -36 748 0 c466 0 758 4 775 10
20 8 24 13 16 27 -5 10 -12 26 -15 36 -5 16 -47 17 -759 17 -414 -1 -759 -5
-766 -9z m1292 -18 c-7 -2 -19 -2 -25 0 -7 3 -2 5 12 5 14 0 19 -2 13 -5z
m-459 -44 c3 -2 -8 -6 -24 -7 -16 -1 -31 2 -34 7 -6 9 49 10 58 0z"/>
<path d="M6245 510 c-11 -18 6 -55 32 -67 31 -15 209 -18 218 -4 3 6 -9 26
-26 45 l-31 36 -93 0 c-52 0 -96 -4 -100 -10z"/>
<path d="M6625 491 c-34 -66 -96 -61 779 -61 437 0 797 3 800 8 2 4 1 23 -3
42 l-7 35 -777 3 -776 2 -16 -29z"/>
<path d="M8246 512 c-2 -4 -7 -24 -11 -45 l-7 -37 116 0 c129 0 136 4 95 60
-21 28 -25 29 -105 29 -46 0 -85 -3 -88 -7z"/>
<path d="M8552 503 c-7 -12 -6 -26 4 -45 l15 -28 152 0 c95 0 157 4 164 11 6
6 7 24 4 42 l-7 32 -161 3 c-145 2 -163 1 -171 -15z"/>
<path d="M8999 508 c-1 -7 -1 -18 0 -25 1 -6 -11 -13 -26 -15 -17 -2 -29 -10
-31 -20 -3 -17 15 -18 279 -18 265 0 286 1 328 21 71 32 76 35 76 50 0 20
-624 26 -626 7z m604 -15 c-7 -2 -19 -2 -25 0 -7 3 -2 5 12 5 14 0 19 -2 13
-5z"/>
<path d="M8036 383 c-10 -11 -6 -23 7 -23 10 0 12 -15 9 -62 -4 -55 -8 -65
-40 -94 -19 -17 -32 -37 -28 -43 5 -8 103 -11 332 -11 l325 0 8 23 c8 22 -24
107 -41 107 -4 0 -8 11 -8 25 0 26 -17 64 -35 78 -20 15 -71 -2 -110 -37 -39
-36 -65 -46 -65 -25 0 7 7 17 17 24 10 7 14 19 10 29 -6 15 -27 17 -191 16
-101 -1 -187 -4 -190 -7z"/>
<path d="M556 195 c-24 -18 -14 -45 18 -45 26 0 52 32 41 50 -9 14 -37 12 -59
-5z"/>
</g>
</svg>
